<svg height="151" viewBox="0 0 802 151" width="802" xmlns="http://www.w3.org/2000/svg"><g fill="none" transform="translate(.74332 .842149)"><path d="m33.6.5h82.8c18.2 0 33 14.8 33 33v82.8c0 18.2-14.8 33-33 33h-82.8c-18.2 0-33-14.8-33-33v-82.8c0-18.2 14.8-33 33-33z" fill="#fcba03"/><path d="m33.5 124.4c-2 0-3.7-.6-5.1-1.9-1.3-1.4-1.9-3.1-1.9-5.1v-61.4c0-2.1.6-3.8 1.9-5.1 1.4-1.3 3.1-1.9 5.1-1.9 2.1 0 3.8.6 5.1 1.9s1.9 3 1.9 5.1v61.4c0 2-.6 3.7-1.9 5.1-1.3 1.2-3 1.9-5.1 1.9zm0-87.7c-2.5 0-4.6-.9-6.5-2.6-1.7-1.8-2.6-4-2.6-6.5s.9-4.6 2.6-6.3c1.8-1.8 4-2.8 6.5-2.8s4.6.9 6.3 2.8c1.8 1.7 2.8 3.9 2.8 6.3 0 2.5-.9 4.6-2.8 6.5-1.7 1.7-3.8 2.6-6.3 2.6z" fill="#fff"/><path d="m125.9 113.7c1.3 1.4 1.9 3 1.9 4.8 0 1.7-.6 3-1.8 4.1-1.1 1.1-2.6 1.7-4.4 1.7-2.2 0-3.9-.7-5-2.2l-21.9-26.2-20.8 26.2c-1.4 1.5-3 2.2-5 2.2-1.8 0-3.3-.6-4.4-1.7-1-1.1-1.5-2.5-1.5-4.1 0-1.8.6-3.5 1.9-5.1l21.4-26.8-22.8-26.9c-1.4-1.7-2.1-3.4-2.1-5.2 0-1.6.5-2.9 1.5-4 1.1-1.1 2.6-1.7 4.6-1.7 2.2 0 4 .8 5.2 2.3l22.6 27 20.3-27c1.2-1.6 2.9-2.3 5.1-2.3 1.8 0 3.3.6 4.3 1.8 1.1 1.1 1.7 2.5 1.7 4.1 0 2-.6 3.9-1.9 5.5l-20.8 27.2z" fill="#fff"/><g fill="#39595d"><path d="m182.2 125.9c-4 0-7.5-1.1-10.8-3.2-3.1-2.2-5.6-5.2-7.3-9.1-1.7-4-2.6-8.4-2.6-13.2v-75.3c0-2 .6-3.7 1.9-5s2.9-1.9 5-1.9c2 0 3.7.6 5 1.9s1.9 2.9 1.9 5v75.3c0 3.4.6 6.2 1.9 8.4s2.9 3.3 5 3.3h3.4c1.8 0 3.3.6 4.4 1.9 1.2 1.3 1.8 2.9 1.8 5 0 2-.9 3.7-2.6 5s-4 1.9-6.8 1.9z"/><path d="m235.9 49.9c7.1 0 13.5 1.7 19.2 5.1 5.8 3.3 10.3 7.9 13.7 13.8 3.4 5.8 5.1 12.3 5.1 19.4v30.8c0 2-.7 3.7-2.1 5.1-1.3 1.3-2.9 1.9-5 1.9s-3.7-.6-5.1-1.9c-1.3-1.4-1.9-3.1-1.9-5.1v-5.1c-3.2 4-7.1 7-11.7 9.2s-9.6 3.3-14.9 3.3c-6.6 0-12.6-1.7-18.1-5-5.3-3.3-9.6-7.9-12.7-13.7-3-5.9-4.6-12.4-4.6-19.6s1.7-13.7 5-19.4c3.3-5.9 7.9-10.5 13.7-13.8 5.9-3.3 12.3-5 19.4-5zm0 64.1c4.6 0 8.7-1.1 12.4-3.3 3.8-2.3 6.7-5.4 8.8-9.2 2.1-4 3.2-8.4 3.2-13.2 0-4.9-1.1-9.3-3.2-13.2-2.1-4-5.1-7-8.8-9.2-3.7-2.3-7.8-3.4-12.4-3.4s-8.8 1.1-12.5 3.4c-3.7 2.2-6.6 5.3-8.8 9.2-2.1 4-3.2 8.4-3.2 13.2 0 4.9 1.1 9.3 3.2 13.2 2.2 3.9 5.1 6.9 8.8 9.2 3.7 2.2 7.9 3.3 12.5 3.3z"/><path d="m330.3 49.9c6.6 0 12.6 1.7 17.9 5 5.4 3.3 9.7 7.9 12.7 13.8 3.1 5.8 4.7 12.3 4.7 19.4 0 7.2-1.7 13.7-5 19.6-3.3 5.8-7.9 10.4-13.8 13.8-5.8 3.3-12.2 5-19.3 5s-13.5-1.7-19.3-5c-5.7-3.4-10.3-8-13.7-13.8-3.3-5.9-5-12.4-5-19.6v-62.9c0-2.1.6-3.8 1.9-5.1 1.4-1.3 3.1-1.9 5.1-1.9 2.1 0 3.8.6 5.1 1.9s1.9 3 1.9 5.1v37.2c3.2-4 7.1-7 11.7-9.2 4.8-2.2 9.8-3.3 15.1-3.3zm-2.8 64.1c4.6 0 8.7-1.1 12.4-3.3 3.8-2.3 6.7-5.4 8.8-9.4 2.2-4 3.3-8.4 3.3-13.2 0-4.9-1.1-9.2-3.3-13.1-2.1-4-5.1-7-8.8-9.2-3.7-2.3-7.8-3.4-12.4-3.4s-8.7 1-12.5 3.3c-3.7 2.2-6.6 5.3-8.7 9.2s-3.2 8.2-3.2 13.1 1.1 9.3 3.2 13.2c2.1 4 5 7.1 8.7 9.4 3.8 2.3 7.9 3.4 12.5 3.4z"/><g transform="translate(427 16)"><path d="m4.5 46.9c-.9 0-1.6-.3-2.2-.8-.6-.6-.8-1.3-.8-2.2v-26.9c0-.9.3-1.7.8-2.2.6-.6 1.3-.8 2.2-.8s1.7.3 2.2.8c.6.6.8 1.3.8 2.2v26.8c0 .9-.3 1.6-.8 2.2s-1.3.9-2.2.9zm0-38.3c-1.1 0-2-.4-2.8-1.1-.8-.8-1.1-1.7-1.1-2.8s.4-2 1.1-2.8c.8-.8 1.7-1.2 2.8-1.2s2 .4 2.8 1.2 1.2 1.7 1.2 2.8-.4 2-1.2 2.8c-.8.7-1.7 1.1-2.8 1.1z"/><path d="m36.4 13.7c2.8 0 5.3.6 7.5 1.8s3.9 3 5.2 5.3c1.2 2.3 1.9 5.1 1.9 8.3v14.8c0 .9-.3 1.6-.9 2.2s-1.3.8-2.2.8-1.6-.3-2.2-.8c-.6-.6-.8-1.3-.8-2.2v-14.8c0-3.3-.9-5.7-2.6-7.3-1.7-1.7-4-2.5-6.9-2.5-1.7 0-3.2.3-4.6 1s-2.4 1.6-3.3 2.8c-.8 1.2-1.1 2.5-1.1 3.9v17c0 .9-.3 1.6-.8 2.2-.6.6-1.3.8-2.2.8s-1.6-.3-2.2-.8c-.6-.6-.8-1.3-.8-2.2v-27c0-.9.3-1.7.8-2.2.6-.6 1.3-.8 2.2-.8s1.7.3 2.2.8c.6.6.8 1.3.8 2.2v.7c1.3-1.3 2.8-2.3 4.6-2.9 1.5-.8 3.4-1.1 5.4-1.1z"/><path d="m76.8 40.9c.7 0 1.3.3 1.8.8.5.6.8 1.3.8 2.2s-.3 1.6-1 2.2c-.6.6-1.5.8-2.5.8h-1.1c-2 0-3.8-.5-5.4-1.5s-2.9-2.4-3.8-4.2-1.4-3.8-1.4-6v-14.9h-2.8c-.8 0-1.5-.2-2-.7s-.8-1.1-.8-1.8c0-.8.3-1.4.8-1.9s1.2-.7 2-.7h2.8v-8.7c0-.9.3-1.6.8-2.2.6-.6 1.3-.8 2.2-.8s1.6.3 2.2.8c.6.6.8 1.3.8 2.2v8.7h5.1c.8 0 1.5.2 2 .7s.8 1.1.8 1.9c0 .7-.3 1.3-.8 1.8s-1.2.7-2 .7h-5.1v14.9c0 1.6.4 2.9 1.3 4s2 1.6 3.3 1.6h2z"/><path d="m118.2 29.9c0 .8-.3 1.4-.8 1.9s-1.2.7-2 .7h-22.9c.4 2.8 1.7 5.1 3.8 6.8s4.7 2.6 7.8 2.6c1.2 0 2.4-.2 3.7-.7 1.3-.4 2.4-1 3.3-1.6.6-.4 1.2-.7 2-.7s1.4.2 1.8.6c.7.6 1.1 1.3 1.1 2s-.3 1.3-1 1.8c-1.4 1.1-3.1 2-5.1 2.6-2 .7-3.9 1-5.8 1-3.3 0-6.2-.7-8.8-2.1s-4.7-3.4-6.1-6c-1.4-2.5-2.2-5.4-2.2-8.6s.7-6.1 2-8.6c1.4-2.6 3.3-4.6 5.8-6s5.3-2.2 8.4-2.2 5.8.7 8 2c2.2 1.4 4 3.3 5.2 5.7 1.2 2.8 1.8 5.6 1.8 8.8zm-15-11c-2.9 0-5.3.8-7.2 2.4-1.8 1.6-2.9 3.8-3.4 6.4h20c-.4-2.7-1.4-4.8-3-6.4s-3.8-2.4-6.4-2.4z"/><path d="m145.1 13.6c2.1 0 3.8.3 5 1 1.2.6 1.8 1.4 1.8 2.4 0 .3 0 .5-.1.6-.4 1.3-1.2 1.9-2.4 1.9-.2 0-.5 0-.9-.1-1.6-.3-2.9-.4-3.9-.4-2.9 0-5.2.7-7 2s-2.6 3.1-2.6 5.4v17.6c0 1-.3 1.7-.8 2.2s-1.2.8-2.2.8-1.7-.2-2.2-.7-.8-1.3-.8-2.3v-27c0-1 .3-1.7.8-2.2s1.3-.8 2.2-.8c2 0 3 1 3 3v1.1c1.2-1.4 2.7-2.5 4.5-3.3 1.7-.8 3.6-1.2 5.6-1.2z"/><path d="m172.1 13.7c3.1 0 5.9.7 8.4 2.2 2.5 1.4 4.5 3.5 6 6s2.2 5.4 2.2 8.5v13.4c0 .9-.3 1.6-.9 2.2s-1.3.8-2.2.8-1.6-.3-2.2-.8c-.6-.6-.8-1.3-.8-2.2v-2.2c-1.4 1.7-3.1 3.1-5.1 4-2 1-4.2 1.4-6.5 1.4-2.9 0-5.5-.7-7.9-2.2-2.3-1.4-4.2-3.4-5.5-6s-2-5.4-2-8.5.7-6 2.2-8.5c1.4-2.6 3.4-4.6 6-6 2.4-1.3 5.3-2.1 8.3-2.1zm0 28c2 0 3.8-.5 5.4-1.4 1.6-1 2.9-2.3 3.9-4 .9-1.7 1.4-3.7 1.4-5.8s-.5-4.1-1.4-5.8-2.2-3.1-3.9-4c-1.6-1-3.4-1.5-5.4-1.5s-3.8.5-5.5 1.5c-1.6 1-2.9 2.3-3.9 4-.9 1.7-1.4 3.7-1.4 5.8s.5 4.1 1.4 5.8c1 1.7 2.2 3 3.9 4 1.7.9 3.5 1.4 5.5 1.4z"/><path d="m214.1 47.1c-3.2 0-6-.7-8.5-2.2-2.5-1.4-4.5-3.4-6-6-1.4-2.6-2.1-5.4-2.1-8.5 0-3.2.7-6.1 2-8.6 1.4-2.6 3.4-4.6 5.8-6 2.5-1.4 5.3-2.2 8.4-2.2 4.7 0 8.7 1.8 11.8 5.4.4.4.6 1 .6 1.6 0 .9-.4 1.6-1.3 2.2-.4.3-.9.4-1.4.4-.9 0-1.7-.4-2.3-1.1-1-1.1-2.1-1.9-3.3-2.3-1.2-.5-2.5-.8-4-.8-3.1 0-5.6 1-7.5 3.1-1.9 2-2.9 4.8-2.9 8.2 0 2.2.4 4.1 1.3 5.8s2.2 3 3.8 4 3.5 1.4 5.6 1.4c2.7 0 4.9-.7 6.6-2.1.8-.6 1.5-.8 2.2-.8.6 0 1.1.2 1.6.5.8.6 1.1 1.4 1.1 2.2 0 .6-.2 1.1-.7 1.6-2.8 2.9-6.4 4.2-10.8 4.2z"/><path d="m249.9 40.9c.7 0 1.3.3 1.8.8.5.6.8 1.3.8 2.2s-.3 1.6-1 2.2c-.6.6-1.5.8-2.5.8h-1.1c-2 0-3.8-.5-5.4-1.5s-2.9-2.4-3.8-4.2-1.4-3.8-1.4-6v-14.9h-2.8c-.8 0-1.5-.2-2-.7s-.8-1.1-.8-1.8c0-.8.3-1.4.8-1.9s1.2-.7 2-.7h2.8v-8.7c0-.9.3-1.6.8-2.2.6-.6 1.3-.8 2.2-.8s1.6.3 2.2.8c.6.6.8 1.3.8 2.2v8.7h5.1c.8 0 1.5.2 2 .7s.8 1.1.8 1.9c0 .7-.3 1.3-.8 1.8s-1.2.7-2 .7h-5.1v14.9c0 1.6.4 2.9 1.3 4s2 1.6 3.3 1.6h2z"/><path d="m264.9 46.9c-.9 0-1.6-.3-2.2-.8-.6-.6-.8-1.3-.8-2.2v-26.9c0-.9.3-1.7.8-2.2.6-.6 1.3-.8 2.2-.8s1.7.3 2.2.8.8 1.3.8 2.2v26.8c0 .9-.3 1.6-.8 2.2s-1.3.9-2.2.9zm0-38.3c-1.1 0-2-.4-2.8-1.1-.8-.8-1.1-1.7-1.1-2.8s.4-2 1.1-2.8c.8-.8 1.7-1.2 2.8-1.2s2 .4 2.8 1.2 1.2 1.7 1.2 2.8-.4 2-1.2 2.8c-.8.7-1.7 1.1-2.8 1.1z"/><path d="m304.8 14.4c.5.2.9.6 1.2 1s.4.9.4 1.4c0 .4-.1.7-.3 1.1l-12.8 26.9c-.6 1.3-1.5 2-2.8 2-.7 0-1.2-.1-1.7-.4-.4-.3-.8-.8-1.2-1.6l-12.6-26.9c-.2-.3-.2-.7-.2-1.1 0-1.1.6-1.9 1.7-2.5.4-.2.8-.3 1.3-.3s.9.1 1.4.4c.4.2.8.6 1 1.1l10.5 22.6 10.4-22.6c.2-.5.6-.8 1-1.1.5-.3 1-.4 1.5-.4.4.1.8.2 1.2.4z"/><path d="m340.9 29.9c0 .8-.3 1.4-.8 1.9s-1.2.7-2 .7h-22.9c.4 2.8 1.7 5.1 3.8 6.8s4.7 2.6 7.8 2.6c1.2 0 2.4-.2 3.7-.7 1.3-.4 2.4-1 3.3-1.6.6-.4 1.2-.7 2-.7s1.4.2 1.8.6c.7.6 1.1 1.3 1.1 2s-.3 1.3-1 1.8c-1.4 1.1-3.1 2-5.1 2.6-2 .7-3.9 1-5.8 1-3.3 0-6.2-.7-8.8-2.1s-4.7-3.4-6.1-6c-1.4-2.5-2.2-5.4-2.2-8.6s.7-6.1 2-8.6c1.4-2.6 3.3-4.6 5.8-6s5.3-2.2 8.4-2.2 5.8.7 8 2c2.2 1.4 4 3.3 5.2 5.7 1.2 2.8 1.8 5.6 1.8 8.8zm-15-11c-2.9 0-5.3.8-7.2 2.4-1.8 1.6-2.9 3.8-3.4 6.4h20c-.4-2.7-1.4-4.8-3-6.4s-3.7-2.4-6.4-2.4z"/><path d="m31.3 92.4c0 .8-.3 1.4-.8 1.9s-1.2.7-2 .7h-22.9c.4 2.8 1.7 5.1 3.8 6.8s4.7 2.6 7.8 2.6c1.2 0 2.4-.2 3.7-.7 1.3-.4 2.4-1 3.3-1.6.6-.4 1.2-.7 2-.7s1.4.2 1.8.6c.7.6 1.1 1.3 1.1 2s-.3 1.3-1 1.8c-1.4 1.1-3.1 2-5.1 2.6-2 .7-3.9 1-5.8 1-3.3 0-6.2-.7-8.8-2.1s-4.7-3.4-6.1-6c-1.4-2.5-2.2-5.4-2.2-8.6s.7-6.1 2-8.6c1.4-2.6 3.3-4.6 5.8-6s5.3-2.2 8.4-2.2 5.8.7 8 2c2.2 1.4 4 3.3 5.2 5.7 1.2 2.8 1.8 5.6 1.8 8.8zm-15-11c-2.9 0-5.3.8-7.2 2.4-1.8 1.6-2.9 3.8-3.4 6.4h20c-.4-2.7-1.4-4.8-3-6.4s-3.8-2.4-6.4-2.4z"/><path d="m62.3 104.7c.6.6.8 1.3.8 2.1 0 .7-.3 1.3-.8 1.8s-1.1.7-1.9.7c-1 0-1.7-.3-2.2-1l-9.6-11.4-9.1 11.4c-.6.6-1.3 1-2.2 1-.8 0-1.4-.2-1.9-.7-.4-.5-.7-1.1-.7-1.8 0-.8.3-1.5.8-2.2l9.3-11.7-9.9-11.7c-.6-.7-.9-1.5-.9-2.3 0-.7.2-1.3.7-1.7.5-.5 1.1-.7 2-.7 1 0 1.7.3 2.3 1l9.9 11.8 8.8-11.8c.5-.7 1.3-1 2.2-1 .8 0 1.4.3 1.9.8s.7 1.1.7 1.8c0 .9-.3 1.7-.8 2.4l-9.1 11.9z"/><path d="m87.4 76.2c3.1 0 5.9.7 8.4 2.2 2.6 1.4 4.6 3.5 6 6s2.2 5.4 2.2 8.5-.7 6-2 8.5-3.2 4.5-5.5 6c-2.3 1.4-4.9 2.2-7.8 2.2-2.3 0-4.5-.5-6.5-1.4-2-1-3.7-2.3-5.1-4v16.3c0 .9-.3 1.7-.8 2.2-.6.6-1.3.8-2.2.8s-1.6-.3-2.2-.8c-.6-.6-.8-1.3-.8-2.2v-27.4c0-3.1.7-6 2.2-8.5 1.5-2.6 3.5-4.6 6-6 2.2-1.7 5-2.4 8.1-2.4zm0 28c2 0 3.8-.5 5.4-1.4 1.6-1 2.9-2.3 3.9-4s1.4-3.7 1.4-5.8-.5-4.1-1.4-5.8-2.2-3.1-3.9-4c-1.6-1-3.4-1.5-5.4-1.5s-3.8.5-5.5 1.5c-1.6 1-2.9 2.3-3.8 4s-1.4 3.7-1.4 5.8.5 4.1 1.4 5.8 2.2 3 3.8 4c1.7.9 3.5 1.4 5.5 1.4z"/><path d="m142.7 92.4c0 .8-.3 1.4-.8 1.9s-1.2.7-2 .7h-22.9c.4 2.8 1.7 5.1 3.8 6.8s4.7 2.6 7.8 2.6c1.2 0 2.4-.2 3.7-.7 1.3-.4 2.4-1 3.3-1.6.6-.4 1.2-.7 2-.7s1.4.2 1.8.6c.7.6 1.1 1.3 1.1 2s-.3 1.3-1 1.8c-1.4 1.1-3.1 2-5.1 2.6-2 .7-3.9 1-5.8 1-3.3 0-6.2-.7-8.8-2.1s-4.7-3.4-6.1-6c-1.4-2.5-2.2-5.4-2.2-8.6s.7-6.1 2-8.6c1.4-2.6 3.3-4.6 5.8-6s5.3-2.2 8.4-2.2 5.8.7 8 2c2.2 1.4 4 3.3 5.2 5.7 1.2 2.8 1.8 5.6 1.8 8.8zm-15-11c-2.9 0-5.3.8-7.2 2.4-1.8 1.6-2.9 3.8-3.4 6.4h20c-.4-2.7-1.4-4.8-3-6.4s-3.7-2.4-6.4-2.4z"/><path d="m167.1 76.1c2.1 0 3.8.3 5 1 1.2.6 1.8 1.4 1.8 2.4 0 .3 0 .5-.1.6-.4 1.3-1.2 1.9-2.4 1.9-.2 0-.5 0-.9-.1-1.6-.3-2.9-.4-3.9-.4-2.9 0-5.2.7-7 2s-2.6 3.1-2.6 5.4v17.6c0 1-.3 1.7-.8 2.2s-1.2.8-2.2.8-1.7-.2-2.2-.7-.8-1.3-.8-2.3v-26.9c0-1 .3-1.7.8-2.2s1.3-.8 2.2-.8c2 0 3 1 3 3v1.1c1.2-1.4 2.7-2.5 4.5-3.3 1.7-.9 3.6-1.3 5.6-1.3z"/><path d="m185.6 109.4c-.9 0-1.6-.3-2.2-.8-.6-.6-.8-1.3-.8-2.2v-26.8c0-.9.3-1.7.8-2.2.6-.6 1.3-.8 2.2-.8s1.7.3 2.2.8c.6.6.8 1.3.8 2.2v26.8c0 .9-.3 1.6-.8 2.2-.5.5-1.2.8-2.2.8zm0-38.3c-1.1 0-2-.4-2.8-1.1-.8-.8-1.1-1.7-1.1-2.8s.4-2 1.1-2.8c.8-.8 1.7-1.2 2.8-1.2s2 .4 2.8 1.2 1.2 1.7 1.2 2.8-.4 2-1.2 2.8c-.7.7-1.7 1.1-2.8 1.1z"/><path d="m229.8 92.4c0 .8-.3 1.4-.8 1.9s-1.2.7-2 .7h-22.9c.4 2.8 1.7 5.1 3.8 6.8s4.7 2.6 7.8 2.6c1.2 0 2.4-.2 3.7-.7 1.3-.4 2.4-1 3.3-1.6.6-.4 1.2-.7 2-.7s1.4.2 1.8.6c.7.6 1.1 1.3 1.1 2s-.3 1.3-1 1.8c-1.4 1.1-3.1 2-5.1 2.6-2 .7-3.9 1-5.8 1-3.3 0-6.2-.7-8.8-2.1s-4.7-3.4-6.1-6c-1.4-2.5-2.2-5.4-2.2-8.6s.7-6.1 2-8.6c1.4-2.6 3.3-4.6 5.8-6s5.3-2.2 8.4-2.2 5.8.7 8 2c2.2 1.4 4 3.3 5.2 5.7 1.2 2.8 1.8 5.6 1.8 8.8zm-15-11c-2.9 0-5.3.8-7.2 2.4-1.8 1.6-2.9 3.8-3.4 6.4h20c-.4-2.7-1.4-4.8-3-6.4s-3.8-2.4-6.4-2.4z"/><path d="m254 76.1c2.8 0 5.3.6 7.5 1.8s3.9 3 5.2 5.3c1.2 2.3 1.9 5.1 1.9 8.3v14.8c0 .9-.3 1.6-.9 2.2s-1.3.8-2.2.8-1.6-.3-2.2-.8c-.6-.6-.8-1.3-.8-2.2v-14.8c0-3.3-.9-5.7-2.6-7.3-1.7-1.7-4-2.5-6.9-2.5-1.7 0-3.2.3-4.6 1s-2.4 1.6-3.3 2.8c-.8 1.2-1.1 2.5-1.1 3.9v17c0 .9-.3 1.6-.8 2.2-.6.6-1.3.8-2.2.8s-1.6-.3-2.2-.8c-.6-.6-.8-1.3-.8-2.2v-26.8c0-.9.3-1.7.8-2.2.6-.6 1.3-.8 2.2-.8s1.7.3 2.2.8c.6.6.8 1.3.8 2.2v.7c1.3-1.3 2.8-2.3 4.6-2.9 1.5-.9 3.4-1.3 5.4-1.3z"/><path d="m293.1 109.6c-3.2 0-6-.7-8.5-2.2-2.5-1.4-4.5-3.4-6-6-1.4-2.6-2.1-5.4-2.1-8.5 0-3.2.7-6.1 2-8.6 1.4-2.6 3.4-4.6 5.8-6 2.5-1.4 5.3-2.2 8.4-2.2 4.7 0 8.7 1.8 11.8 5.4.4.4.6 1 .6 1.6 0 .9-.4 1.6-1.3 2.2-.4.3-.9.4-1.4.4-.9 0-1.7-.4-2.3-1.1-1-1.1-2.1-1.9-3.3-2.3-1.2-.5-2.5-.8-4-.8-3.1 0-5.6 1-7.5 3.1-1.9 2-2.9 4.8-2.9 8.2 0 2.2.4 4.1 1.3 5.8s2.2 3 3.8 4 3.5 1.4 5.6 1.4c2.7 0 4.9-.7 6.6-2.1.8-.6 1.5-.8 2.2-.8.6 0 1.1.2 1.6.5.8.6 1.1 1.4 1.1 2.2 0 .6-.2 1.1-.7 1.6-2.8 2.9-6.5 4.2-10.8 4.2z"/><path d="m340.9 92.4c0 .8-.3 1.4-.8 1.9s-1.2.7-2 .7h-22.9c.4 2.8 1.7 5.1 3.8 6.8s4.7 2.6 7.8 2.6c1.2 0 2.4-.2 3.7-.7 1.3-.4 2.4-1 3.3-1.6.6-.4 1.2-.7 2-.7s1.4.2 1.8.6c.7.6 1.1 1.3 1.1 2s-.3 1.3-1 1.8c-1.4 1.1-3.1 2-5.1 2.6-2 .7-3.9 1-5.8 1-3.3 0-6.2-.7-8.8-2.1s-4.7-3.4-6.1-6c-1.4-2.5-2.2-5.4-2.2-8.6s.7-6.1 2-8.6c1.4-2.6 3.3-4.6 5.8-6s5.3-2.2 8.4-2.2 5.8.7 8 2c2.2 1.4 4 3.3 5.2 5.7 1.2 2.8 1.8 5.6 1.8 8.8zm-14.9-11c-2.9 0-5.3.8-7.2 2.4-1.8 1.6-2.9 3.8-3.4 6.4h20c-.4-2.7-1.4-4.8-3-6.4s-3.8-2.4-6.4-2.4z"/><path d="m360.8 109.6c-2.7 0-5.3-.4-7.7-1.3s-4.3-1.9-5.7-3.3c-.5-.5-.8-1.1-.8-1.9 0-1 .4-1.7 1.2-2.3s1.5-.8 2.1-.8c.8 0 1.6.4 2.3 1.1.8.8 1.9 1.6 3.4 2.2s3.2.9 4.9.9c2.3 0 4.1-.4 5.3-1.1 1.3-.8 1.9-1.8 1.9-3.1 0-1.2-.6-2.3-1.9-3.1-1.2-.8-3.4-1.5-6.3-2.1-7.7-1.5-11.6-4.7-11.6-9.5 0-2 .6-3.6 1.7-5 1.2-1.4 2.7-2.4 4.6-3.1s3.9-1 6-1c2.6 0 4.9.4 7 1.3 2.1.8 3.7 2 4.9 3.5.5.6.8 1.3.8 1.9 0 .7-.3 1.3-1 1.9-.4.3-1 .5-1.7.5-1 0-2-.4-2.8-1.1-1-.9-2.1-1.6-3.2-1.9-1.1-.4-2.5-.6-4.1-.6-1.8 0-3.4.3-4.6 1-1.2.6-1.7 1.5-1.7 2.6 0 .8.2 1.5.6 2s1.2 1 2.3 1.5c1.1.4 2.7.9 4.9 1.3 4.4.9 7.5 2.1 9.3 3.7s2.8 3.6 2.8 6.1c0 1.8-.5 3.5-1.5 5.1-1 1.5-2.5 2.7-4.5 3.6-1.9.6-4.2 1-6.9 1z"/></g></g><path d="m394.1.9h1.2c1.6 0 2.8 1.3 2.8 2.8v142.8c0 1.6-1.3 2.8-2.8 2.8h-1.2c-1.6 0-2.8-1.3-2.8-2.8v-142.8c0-1.6 1.3-2.8 2.8-2.8z" fill="#fcba03"/></g></svg>