<?xml version="1.0" encoding="UTF-8"?>
<svg width="802px" height="151px" viewBox="0 0 802 151" version="1.1" xmlns="http://www.w3.org/2000/svg" xmlns:xlink="http://www.w3.org/1999/xlink">
    <title>ixlab</title>
    <g id="mockups" stroke="none" stroke-width="1" fill="none" fill-rule="evenodd">
        <g id="ixlab" fill-rule="nonzero">
            <g id="Group" transform="translate(0.743320, 0.842149)">
                <path d="M33.6,0.5 L116.4,0.5 C134.6,0.5 149.4,15.3 149.4,33.5 L149.4,116.3 C149.4,134.5 134.6,149.3 116.4,149.3 L33.6,149.3 C15.4,149.3 0.6,134.5 0.6,116.3 L0.6,33.5 C0.6,15.3 15.4,0.5 33.6,0.5 Z" id="Path" fill="#FCBA03"></path>
                <path d="M33.5,124.4 C31.5,124.4 29.8,123.8 28.4,122.5 C27.1,121.1 26.5,119.4 26.5,117.4 L26.5,56 C26.5,53.9 27.1,52.2 28.4,50.9 C29.8,49.6 31.5,49 33.5,49 C35.6,49 37.3,49.6 38.6,50.9 C39.9,52.2 40.5,53.9 40.5,56 L40.5,117.4 C40.5,119.4 39.9,121.1 38.6,122.5 C37.3,123.7 35.6,124.4 33.5,124.4 Z M33.5,36.7 C31,36.7 28.9,35.8 27,34.1 C25.3,32.3 24.4,30.1 24.4,27.6 C24.4,25.1 25.3,23 27,21.3 C28.8,19.5 31,18.5 33.5,18.5 C36,18.5 38.1,19.4 39.8,21.3 C41.6,23 42.6,25.2 42.6,27.6 C42.6,30.1 41.7,32.2 39.8,34.1 C38.1,35.8 36,36.7 33.5,36.7 Z" id="Shape" fill="#FFFFFF"></path>
                <path d="M125.9,113.7 C127.2,115.1 127.8,116.7 127.8,118.5 C127.8,120.2 127.2,121.5 126,122.6 C124.9,123.7 123.4,124.3 121.6,124.3 C119.4,124.3 117.7,123.6 116.6,122.1 L94.7,95.9 L73.9,122.1 C72.5,123.6 70.9,124.3 68.9,124.3 C67.1,124.3 65.6,123.7 64.5,122.6 C63.5,121.5 63,120.1 63,118.5 C63,116.7 63.6,115 64.9,113.4 L86.3,86.6 L63.5,59.7 C62.1,58 61.4,56.3 61.4,54.5 C61.4,52.9 61.9,51.6 62.9,50.5 C64,49.4 65.5,48.8 67.5,48.8 C69.7,48.8 71.5,49.6 72.7,51.1 L95.3,78.1 L115.6,51.1 C116.8,49.5 118.5,48.8 120.7,48.8 C122.5,48.8 124,49.4 125,50.6 C126.1,51.7 126.7,53.1 126.7,54.7 C126.7,56.7 126.1,58.6 124.8,60.2 L104,87.4 L125.9,113.7 Z" id="Path" fill="#FFFFFF"></path>
                <path d="M182.2,125.9 C178.2,125.9 174.7,124.8 171.4,122.7 C168.3,120.5 165.8,117.5 164.1,113.6 C162.4,109.6 161.5,105.2 161.5,100.4 L161.5,25.1 C161.5,23.1 162.1,21.4 163.4,20.1 C164.7,18.8 166.3,18.2 168.4,18.2 C170.4,18.2 172.1,18.8 173.4,20.1 C174.7,21.4 175.3,23 175.3,25.1 L175.3,100.4 C175.3,103.8 175.9,106.6 177.2,108.8 C178.5,111 180.1,112.1 182.2,112.1 L185.6,112.1 C187.4,112.1 188.9,112.7 190,114 C191.2,115.3 191.8,116.9 191.8,119 C191.8,121 190.9,122.7 189.2,124 C187.5,125.3 185.2,125.9 182.4,125.9 L182.2,125.9 L182.2,125.9 Z" id="Path" fill="#39595D"></path>
                <path d="M235.9,49.9 C243,49.9 249.4,51.6 255.1,55 C260.9,58.3 265.4,62.9 268.8,68.8 C272.2,74.6 273.9,81.1 273.9,88.2 L273.9,119 C273.9,121 273.2,122.7 271.8,124.1 C270.5,125.4 268.9,126 266.8,126 C264.7,126 263.1,125.4 261.7,124.1 C260.4,122.7 259.8,121 259.8,119 L259.8,113.9 C256.6,117.9 252.7,120.9 248.1,123.1 C243.5,125.3 238.5,126.4 233.2,126.4 C226.6,126.4 220.6,124.7 215.1,121.4 C209.8,118.1 205.5,113.5 202.4,107.7 C199.4,101.8 197.8,95.3 197.8,88.1 C197.8,80.9 199.5,74.4 202.8,68.7 C206.1,62.8 210.7,58.2 216.5,54.9 C222.4,51.6 228.8,49.9 235.9,49.9 L235.9,49.9 Z M235.9,114 C240.5,114 244.6,112.9 248.3,110.7 C252.1,108.4 255,105.3 257.1,101.5 C259.2,97.5 260.3,93.1 260.3,88.3 C260.3,83.4 259.2,79 257.1,75.1 C255,71.1 252,68.1 248.3,65.9 C244.6,63.6 240.5,62.5 235.9,62.5 C231.3,62.5 227.1,63.6 223.4,65.9 C219.7,68.1 216.8,71.2 214.6,75.1 C212.5,79.1 211.4,83.5 211.4,88.3 C211.4,93.2 212.5,97.6 214.6,101.5 C216.8,105.4 219.7,108.4 223.4,110.7 C227.1,112.9 231.3,114 235.9,114 L235.9,114 Z" id="Shape" fill="#39595D"></path>
                <path d="M330.3,49.9 C336.9,49.9 342.9,51.6 348.2,54.9 C353.6,58.2 357.9,62.8 360.9,68.7 C364,74.5 365.6,81 365.6,88.1 C365.6,95.3 363.9,101.8 360.6,107.7 C357.3,113.5 352.7,118.1 346.8,121.5 C341,124.8 334.6,126.5 327.5,126.5 C320.4,126.5 314,124.8 308.2,121.5 C302.5,118.1 297.9,113.5 294.5,107.7 C291.2,101.8 289.5,95.3 289.5,88.1 L289.5,25.2 C289.5,23.1 290.1,21.4 291.4,20.1 C292.8,18.8 294.5,18.2 296.5,18.2 C298.6,18.2 300.3,18.8 301.6,20.1 C302.9,21.4 303.5,23.1 303.5,25.2 L303.5,62.4 C306.7,58.4 310.6,55.4 315.2,53.2 C320,51 325,49.9 330.3,49.9 L330.3,49.9 Z M327.5,114 C332.1,114 336.2,112.9 339.9,110.7 C343.7,108.4 346.6,105.3 348.7,101.3 C350.9,97.3 352,92.9 352,88.1 C352,83.2 350.9,78.9 348.7,75 C346.6,71 343.6,68 339.9,65.8 C336.2,63.5 332.1,62.4 327.5,62.4 C322.9,62.4 318.8,63.4 315,65.7 C311.3,67.9 308.4,71 306.3,74.9 C304.2,78.8 303.1,83.1 303.1,88 C303.1,92.9 304.2,97.3 306.3,101.2 C308.4,105.2 311.3,108.3 315,110.6 C318.8,112.9 322.9,114 327.5,114 Z" id="Shape" fill="#39595D"></path>
                <g transform="translate(427.000000, 16.000000)" fill="#39595D">
                    <path d="M4.5,46.9 C3.6,46.9 2.9,46.6 2.3,46.1 C1.7,45.5 1.5,44.8 1.5,43.9 L1.5,17 C1.5,16.1 1.8,15.3 2.3,14.8 C2.9,14.2 3.6,14 4.5,14 C5.4,14 6.2,14.3 6.7,14.8 C7.3,15.4 7.5,16.1 7.5,17 L7.5,43.8 C7.5,44.7 7.2,45.4 6.7,46 C6.2,46.6 5.4,46.9 4.5,46.9 Z M4.5,8.6 C3.4,8.6 2.5,8.2 1.7,7.5 C0.9,6.7 0.6,5.8 0.6,4.7 C0.6,3.6 1,2.7 1.7,1.9 C2.5,1.1 3.4,0.7 4.5,0.7 C5.6,0.7 6.5,1.1 7.3,1.9 C8.1,2.7 8.5,3.6 8.5,4.7 C8.5,5.8 8.1,6.7 7.3,7.5 C6.5,8.2 5.6,8.6 4.5,8.6 Z" id="Shape"></path>
                    <path d="M36.4,13.7 C39.2,13.7 41.7,14.3 43.9,15.5 C46.1,16.7 47.8,18.5 49.1,20.8 C50.3,23.1 51,25.9 51,29.1 L51,43.9 C51,44.8 50.7,45.5 50.1,46.1 C49.5,46.7 48.8,46.9 47.9,46.9 C47,46.9 46.3,46.6 45.7,46.1 C45.1,45.5 44.9,44.8 44.9,43.9 L44.9,29.1 C44.9,25.8 44,23.4 42.3,21.8 C40.6,20.1 38.3,19.3 35.4,19.3 C33.7,19.3 32.2,19.6 30.8,20.3 C29.4,21 28.4,21.9 27.5,23.1 C26.7,24.3 26.4,25.6 26.4,27 L26.4,44 C26.4,44.9 26.1,45.6 25.6,46.2 C25,46.8 24.3,47 23.4,47 C22.5,47 21.8,46.7 21.2,46.2 C20.6,45.6 20.4,44.9 20.4,44 L20.4,17 C20.4,16.1 20.7,15.3 21.2,14.8 C21.8,14.2 22.5,14 23.4,14 C24.3,14 25.1,14.3 25.6,14.8 C26.2,15.4 26.4,16.1 26.4,17 L26.4,17.7 C27.7,16.4 29.2,15.4 31,14.8 C32.5,14 34.4,13.7 36.4,13.7 Z" id="Path"></path>
                    <path d="M76.8,40.9 C77.5,40.9 78.1,41.2 78.6,41.7 C79.1,42.3 79.4,43 79.4,43.9 C79.4,44.8 79.1,45.5 78.4,46.1 C77.8,46.7 76.9,46.9 75.9,46.9 L74.8,46.9 C72.8,46.9 71,46.4 69.4,45.4 C67.8,44.4 66.5,43 65.6,41.2 C64.7,39.4 64.2,37.4 64.2,35.2 L64.2,20.3 L61.4,20.3 C60.6,20.3 59.9,20.1 59.4,19.6 C58.9,19.1 58.6,18.5 58.6,17.8 C58.6,17 58.9,16.4 59.4,15.9 C59.9,15.4 60.6,15.2 61.4,15.2 L64.2,15.2 L64.2,6.5 C64.2,5.6 64.5,4.9 65,4.3 C65.6,3.7 66.3,3.5 67.2,3.5 C68.1,3.5 68.8,3.8 69.4,4.3 C70,4.9 70.2,5.6 70.2,6.5 L70.2,15.2 L75.3,15.2 C76.1,15.2 76.8,15.4 77.3,15.9 C77.8,16.4 78.1,17 78.1,17.8 C78.1,18.5 77.8,19.1 77.3,19.6 C76.8,20.1 76.1,20.3 75.3,20.3 L70.2,20.3 L70.2,35.2 C70.2,36.8 70.6,38.1 71.5,39.2 C72.4,40.3 73.5,40.8 74.8,40.8 L76.8,40.8 L76.8,40.9 L76.8,40.9 Z" id="Path"></path>
                    <path d="M118.2,29.9 C118.2,30.7 117.9,31.3 117.4,31.8 C116.9,32.3 116.2,32.5 115.4,32.5 L92.5,32.5 C92.9,35.3 94.2,37.6 96.3,39.3 C98.4,41 101,41.9 104.1,41.9 C105.3,41.9 106.5,41.7 107.8,41.2 C109.1,40.8 110.2,40.2 111.1,39.6 C111.7,39.2 112.3,38.9 113.1,38.9 C113.9,38.9 114.5,39.1 114.9,39.5 C115.6,40.1 116,40.8 116,41.5 C116,42.2 115.7,42.8 115,43.3 C113.6,44.4 111.9,45.3 109.9,45.9 C107.9,46.6 106,46.9 104.1,46.9 C100.8,46.9 97.9,46.2 95.3,44.8 C92.7,43.4 90.6,41.4 89.2,38.8 C87.8,36.3 87,33.4 87,30.2 C87,27 87.7,24.1 89,21.6 C90.4,19 92.3,17 94.8,15.6 C97.3,14.2 100.1,13.4 103.2,13.4 C106.3,13.4 109,14.1 111.2,15.4 C113.4,16.8 115.2,18.7 116.4,21.1 C117.6,23.9 118.2,26.7 118.2,29.9 Z M103.2,18.9 C100.3,18.9 97.9,19.7 96,21.3 C94.2,22.9 93.1,25.1 92.6,27.7 L112.6,27.7 C112.2,25 111.2,22.9 109.6,21.3 C108,19.7 105.8,18.9 103.2,18.9 Z" id="Shape"></path>
                    <path d="M145.1,13.6 C147.2,13.6 148.9,13.9 150.1,14.6 C151.3,15.2 151.9,16 151.9,17 C151.9,17.3 151.9,17.5 151.8,17.6 C151.4,18.9 150.6,19.5 149.4,19.5 C149.2,19.5 148.9,19.5 148.5,19.4 C146.9,19.1 145.6,19 144.6,19 C141.7,19 139.4,19.7 137.6,21 C135.8,22.3 135,24.1 135,26.4 L135,44 C135,45 134.7,45.7 134.2,46.2 C133.7,46.7 133,47 132,47 C131,47 130.3,46.8 129.8,46.3 C129.3,45.8 129,45 129,44 L129,17 C129,16 129.3,15.3 129.8,14.8 C130.3,14.3 131.1,14 132,14 C134,14 135,15 135,17 L135,18.1 C136.2,16.7 137.7,15.6 139.5,14.8 C141.2,14 143.1,13.6 145.1,13.6 L145.1,13.6 Z" id="Path"></path>
                    <path d="M172.1,13.7 C175.2,13.7 178,14.4 180.5,15.9 C183,17.3 185,19.4 186.5,21.9 C188,24.4 188.7,27.3 188.7,30.4 L188.7,43.8 C188.7,44.7 188.4,45.4 187.8,46 C187.2,46.6 186.5,46.8 185.6,46.8 C184.7,46.8 184,46.5 183.4,46 C182.8,45.4 182.6,44.7 182.6,43.8 L182.6,41.6 C181.2,43.3 179.5,44.7 177.5,45.6 C175.5,46.6 173.3,47 171,47 C168.1,47 165.5,46.3 163.1,44.8 C160.8,43.4 158.9,41.4 157.6,38.8 C156.3,36.2 155.6,33.4 155.6,30.3 C155.6,27.2 156.3,24.3 157.8,21.8 C159.2,19.2 161.2,17.2 163.8,15.8 C166.2,14.5 169.1,13.7 172.1,13.7 L172.1,13.7 Z M172.1,41.7 C174.1,41.7 175.9,41.2 177.5,40.3 C179.1,39.3 180.4,38 181.4,36.3 C182.3,34.6 182.8,32.6 182.8,30.5 C182.8,28.4 182.3,26.4 181.4,24.7 C180.5,23 179.2,21.6 177.5,20.7 C175.9,19.7 174.1,19.2 172.1,19.2 C170.1,19.2 168.3,19.7 166.6,20.7 C165,21.7 163.7,23 162.7,24.7 C161.8,26.4 161.3,28.4 161.3,30.5 C161.3,32.6 161.8,34.6 162.7,36.3 C163.7,38 164.9,39.3 166.6,40.3 C168.3,41.2 170.1,41.7 172.1,41.7 Z" id="Shape"></path>
                    <path d="M214.1,47.1 C210.9,47.1 208.1,46.4 205.6,44.9 C203.1,43.5 201.1,41.5 199.6,38.9 C198.2,36.3 197.5,33.5 197.5,30.4 C197.5,27.2 198.2,24.3 199.5,21.8 C200.9,19.2 202.9,17.2 205.3,15.8 C207.8,14.4 210.6,13.6 213.7,13.6 C218.4,13.6 222.4,15.4 225.5,19 C225.9,19.4 226.1,20 226.1,20.6 C226.1,21.5 225.7,22.2 224.8,22.8 C224.4,23.1 223.9,23.2 223.4,23.2 C222.5,23.2 221.7,22.8 221.1,22.1 C220.1,21 219,20.2 217.8,19.8 C216.6,19.3 215.3,19 213.8,19 C210.7,19 208.2,20 206.3,22.1 C204.4,24.1 203.4,26.9 203.4,30.3 C203.4,32.5 203.8,34.4 204.7,36.1 C205.6,37.8 206.9,39.1 208.5,40.1 C210.1,41.1 212,41.5 214.1,41.5 C216.8,41.5 219,40.8 220.7,39.4 C221.5,38.8 222.2,38.6 222.9,38.6 C223.5,38.6 224,38.8 224.5,39.1 C225.3,39.7 225.6,40.5 225.6,41.3 C225.6,41.9 225.4,42.4 224.9,42.9 C222.1,45.8 218.5,47.1 214.1,47.1 L214.1,47.1 Z" id="Path"></path>
                    <path d="M249.9,40.9 C250.6,40.9 251.2,41.2 251.7,41.7 C252.2,42.3 252.5,43 252.5,43.9 C252.5,44.8 252.2,45.5 251.5,46.1 C250.9,46.7 250,46.9 249,46.9 L247.9,46.9 C245.9,46.9 244.1,46.4 242.5,45.4 C240.9,44.4 239.6,43 238.7,41.2 C237.8,39.4 237.3,37.4 237.3,35.2 L237.3,20.3 L234.5,20.3 C233.7,20.3 233,20.1 232.5,19.6 C232,19.1 231.7,18.5 231.7,17.8 C231.7,17 232,16.4 232.5,15.9 C233,15.4 233.7,15.2 234.5,15.2 L237.3,15.2 L237.3,6.5 C237.3,5.6 237.6,4.9 238.1,4.3 C238.7,3.7 239.4,3.5 240.3,3.5 C241.2,3.5 241.9,3.8 242.5,4.3 C243.1,4.9 243.3,5.6 243.3,6.5 L243.3,15.2 L248.4,15.2 C249.2,15.2 249.9,15.4 250.4,15.9 C250.9,16.4 251.2,17 251.2,17.8 C251.2,18.5 250.9,19.1 250.4,19.6 C249.9,20.1 249.2,20.3 248.4,20.3 L243.3,20.3 L243.3,35.2 C243.3,36.8 243.7,38.1 244.6,39.2 C245.5,40.3 246.6,40.8 247.9,40.8 L249.9,40.8 L249.9,40.9 L249.9,40.9 Z" id="Path"></path>
                    <path d="M264.9,46.9 C264,46.9 263.3,46.6 262.7,46.1 C262.1,45.5 261.9,44.8 261.9,43.9 L261.9,17 C261.9,16.1 262.2,15.3 262.7,14.8 C263.3,14.2 264,14 264.9,14 C265.8,14 266.6,14.3 267.1,14.8 C267.6,15.3 267.9,16.1 267.9,17 L267.9,43.8 C267.9,44.7 267.6,45.4 267.1,46 C266.6,46.6 265.8,46.9 264.9,46.9 Z M264.9,8.6 C263.8,8.6 262.9,8.2 262.1,7.5 C261.3,6.7 261,5.8 261,4.7 C261,3.6 261.4,2.7 262.1,1.9 C262.9,1.1 263.8,0.7 264.9,0.7 C266,0.7 266.9,1.1 267.7,1.9 C268.5,2.7 268.9,3.6 268.9,4.7 C268.9,5.8 268.5,6.7 267.7,7.5 C266.9,8.2 266,8.6 264.9,8.6 Z" id="Shape"></path>
                    <path d="M304.8,14.4 C305.3,14.6 305.7,15 306,15.4 C306.3,15.8 306.4,16.3 306.4,16.8 C306.4,17.2 306.3,17.5 306.1,17.9 L293.3,44.8 C292.7,46.1 291.8,46.8 290.5,46.8 C289.8,46.8 289.3,46.7 288.8,46.4 C288.4,46.1 288,45.6 287.6,44.8 L275,17.9 C274.8,17.6 274.8,17.2 274.8,16.8 C274.8,15.7 275.4,14.9 276.5,14.3 C276.9,14.1 277.3,14 277.8,14 C278.3,14 278.7,14.1 279.2,14.4 C279.6,14.6 280,15 280.2,15.5 L290.7,38.1 L301.1,15.5 C301.3,15 301.7,14.7 302.1,14.4 C302.6,14.1 303.1,14 303.6,14 C304,14.1 304.4,14.2 304.8,14.4 L304.8,14.4 Z" id="Path"></path>
                    <path d="M340.9,29.9 C340.9,30.7 340.6,31.3 340.1,31.8 C339.6,32.3 338.9,32.5 338.1,32.5 L315.2,32.5 C315.6,35.3 316.9,37.6 319,39.3 C321.1,41 323.7,41.9 326.8,41.9 C328,41.9 329.2,41.7 330.5,41.2 C331.8,40.8 332.9,40.2 333.8,39.6 C334.4,39.2 335,38.9 335.8,38.9 C336.6,38.9 337.2,39.1 337.6,39.5 C338.3,40.1 338.7,40.8 338.7,41.5 C338.7,42.2 338.4,42.8 337.7,43.3 C336.3,44.4 334.6,45.3 332.6,45.9 C330.6,46.6 328.7,46.9 326.8,46.9 C323.5,46.9 320.6,46.2 318,44.8 C315.4,43.4 313.3,41.4 311.9,38.8 C310.5,36.3 309.7,33.4 309.7,30.2 C309.7,27 310.4,24.1 311.7,21.6 C313.1,19 315,17 317.5,15.6 C320,14.2 322.8,13.4 325.9,13.4 C329,13.4 331.7,14.1 333.9,15.4 C336.1,16.8 337.9,18.7 339.1,21.1 C340.3,23.9 340.9,26.7 340.9,29.9 L340.9,29.9 Z M325.9,18.9 C323,18.9 320.6,19.7 318.7,21.3 C316.9,22.9 315.8,25.1 315.3,27.7 L335.3,27.7 C334.9,25 333.9,22.9 332.3,21.3 C330.7,19.7 328.6,18.9 325.9,18.9 Z" id="Shape"></path>
                    <path d="M31.3,92.4 C31.3,93.2 31,93.8 30.5,94.3 C30,94.8 29.3,95 28.5,95 L5.6,95 C6,97.8 7.3,100.1 9.4,101.8 C11.5,103.5 14.1,104.4 17.2,104.4 C18.4,104.4 19.6,104.2 20.9,103.7 C22.2,103.3 23.3,102.7 24.2,102.1 C24.8,101.7 25.4,101.4 26.2,101.4 C27,101.4 27.6,101.6 28,102 C28.7,102.6 29.1,103.3 29.1,104 C29.1,104.7 28.8,105.3 28.1,105.8 C26.7,106.9 25,107.8 23,108.4 C21,109.1 19.1,109.4 17.2,109.4 C13.9,109.4 11,108.7 8.4,107.3 C5.8,105.9 3.7,103.9 2.3,101.3 C0.9,98.8 0.1,95.9 0.1,92.7 C0.1,89.5 0.8,86.6 2.1,84.1 C3.5,81.5 5.4,79.5 7.9,78.1 C10.4,76.7 13.2,75.9 16.3,75.9 C19.4,75.9 22.1,76.6 24.3,77.9 C26.5,79.3 28.3,81.2 29.5,83.6 C30.7,86.4 31.3,89.2 31.3,92.4 L31.3,92.4 Z M16.3,81.4 C13.4,81.4 11,82.2 9.1,83.8 C7.3,85.4 6.2,87.6 5.7,90.2 L25.7,90.2 C25.3,87.5 24.3,85.4 22.7,83.8 C21.1,82.2 18.9,81.4 16.3,81.4 Z" id="Shape"></path>
                    <path d="M62.3,104.7 C62.9,105.3 63.1,106 63.1,106.8 C63.1,107.5 62.8,108.1 62.3,108.6 C61.8,109.1 61.2,109.3 60.4,109.3 C59.4,109.3 58.7,109 58.2,108.3 L48.6,96.9 L39.5,108.3 C38.9,108.9 38.2,109.3 37.3,109.3 C36.5,109.3 35.9,109.1 35.4,108.6 C35,108.1 34.7,107.5 34.7,106.8 C34.7,106 35,105.3 35.5,104.6 L44.8,92.9 L34.9,81.2 C34.3,80.5 34,79.7 34,78.9 C34,78.2 34.2,77.6 34.7,77.2 C35.2,76.7 35.8,76.5 36.7,76.5 C37.7,76.5 38.4,76.8 39,77.5 L48.9,89.3 L57.7,77.5 C58.2,76.8 59,76.5 59.9,76.5 C60.7,76.5 61.3,76.8 61.8,77.3 C62.3,77.8 62.5,78.4 62.5,79.1 C62.5,80 62.2,80.8 61.7,81.5 L52.6,93.4 L62.3,104.7 Z" id="Path"></path>
                    <path d="M87.4,76.2 C90.5,76.2 93.3,76.9 95.8,78.4 C98.4,79.8 100.4,81.9 101.8,84.4 C103.2,86.9 104,89.8 104,92.9 C104,96 103.3,98.9 102,101.4 C100.7,103.9 98.8,105.9 96.5,107.4 C94.2,108.8 91.6,109.6 88.7,109.6 C86.4,109.6 84.2,109.1 82.2,108.2 C80.2,107.2 78.5,105.9 77.1,104.2 L77.1,120.5 C77.1,121.4 76.8,122.2 76.3,122.7 C75.7,123.3 75,123.5 74.1,123.5 C73.2,123.5 72.5,123.2 71.9,122.7 C71.3,122.1 71.1,121.4 71.1,120.5 L71.1,93.1 C71.1,90 71.8,87.1 73.3,84.6 C74.8,82 76.8,80 79.3,78.6 C81.5,76.9 84.3,76.2 87.4,76.2 L87.4,76.2 Z M87.4,104.2 C89.4,104.2 91.2,103.7 92.8,102.8 C94.4,101.8 95.7,100.5 96.7,98.8 C97.7,97.1 98.1,95.1 98.1,93 C98.1,90.9 97.6,88.9 96.7,87.2 C95.8,85.5 94.5,84.1 92.8,83.2 C91.2,82.2 89.4,81.7 87.4,81.7 C85.4,81.7 83.6,82.2 81.9,83.2 C80.3,84.2 79,85.5 78.1,87.2 C77.2,88.9 76.7,90.9 76.7,93 C76.7,95.1 77.2,97.1 78.1,98.8 C79,100.5 80.3,101.8 81.9,102.8 C83.6,103.7 85.4,104.2 87.4,104.2 Z" id="Shape"></path>
                    <path d="M142.7,92.4 C142.7,93.2 142.4,93.8 141.9,94.3 C141.4,94.8 140.7,95 139.9,95 L117,95 C117.4,97.8 118.7,100.1 120.8,101.8 C122.9,103.5 125.5,104.4 128.6,104.4 C129.8,104.4 131,104.2 132.3,103.7 C133.6,103.3 134.7,102.7 135.6,102.1 C136.2,101.7 136.8,101.4 137.6,101.4 C138.4,101.4 139,101.6 139.4,102 C140.1,102.6 140.5,103.3 140.5,104 C140.5,104.7 140.2,105.3 139.5,105.8 C138.1,106.9 136.4,107.8 134.4,108.4 C132.4,109.1 130.5,109.4 128.6,109.4 C125.3,109.4 122.4,108.7 119.8,107.3 C117.2,105.9 115.1,103.9 113.7,101.3 C112.3,98.8 111.5,95.9 111.5,92.7 C111.5,89.5 112.2,86.6 113.5,84.1 C114.9,81.5 116.8,79.5 119.3,78.1 C121.8,76.7 124.6,75.9 127.7,75.9 C130.8,75.9 133.5,76.6 135.7,77.9 C137.9,79.3 139.7,81.2 140.9,83.6 C142.1,86.4 142.7,89.2 142.7,92.4 L142.7,92.4 Z M127.7,81.4 C124.8,81.4 122.4,82.2 120.5,83.8 C118.7,85.4 117.6,87.6 117.1,90.2 L137.1,90.2 C136.7,87.5 135.7,85.4 134.1,83.8 C132.5,82.2 130.4,81.4 127.7,81.4 Z" id="Shape"></path>
                    <path d="M167.1,76.1 C169.2,76.1 170.9,76.4 172.1,77.1 C173.3,77.7 173.9,78.5 173.9,79.5 C173.9,79.8 173.9,80 173.8,80.1 C173.4,81.4 172.6,82 171.4,82 C171.2,82 170.9,82 170.5,81.9 C168.9,81.6 167.6,81.5 166.6,81.5 C163.7,81.5 161.4,82.2 159.6,83.5 C157.8,84.8 157,86.6 157,88.9 L157,106.5 C157,107.5 156.7,108.2 156.2,108.7 C155.7,109.2 155,109.5 154,109.5 C153,109.5 152.3,109.3 151.8,108.8 C151.3,108.3 151,107.5 151,106.5 L151,79.6 C151,78.6 151.3,77.9 151.8,77.4 C152.3,76.9 153.1,76.6 154,76.6 C156,76.6 157,77.6 157,79.6 L157,80.7 C158.2,79.3 159.7,78.2 161.5,77.4 C163.2,76.5 165.1,76.1 167.1,76.1 L167.1,76.1 Z" id="Path"></path>
                    <path d="M185.6,109.4 C184.7,109.4 184,109.1 183.4,108.6 C182.8,108 182.6,107.3 182.6,106.4 L182.6,79.6 C182.6,78.7 182.9,77.9 183.4,77.4 C184,76.8 184.7,76.6 185.6,76.6 C186.5,76.6 187.3,76.9 187.8,77.4 C188.4,78 188.6,78.7 188.6,79.6 L188.6,106.4 C188.6,107.3 188.3,108 187.8,108.6 C187.3,109.1 186.6,109.4 185.6,109.4 Z M185.6,71.1 C184.5,71.1 183.6,70.7 182.8,70 C182,69.2 181.7,68.3 181.7,67.2 C181.7,66.1 182.1,65.2 182.8,64.4 C183.6,63.6 184.5,63.2 185.6,63.2 C186.7,63.2 187.6,63.6 188.4,64.4 C189.2,65.2 189.6,66.1 189.6,67.2 C189.6,68.3 189.2,69.2 188.4,70 C187.7,70.7 186.7,71.1 185.6,71.1 Z" id="Shape"></path>
                    <path d="M229.8,92.4 C229.8,93.2 229.5,93.8 229,94.3 C228.5,94.8 227.8,95 227,95 L204.1,95 C204.5,97.8 205.8,100.1 207.9,101.8 C210,103.5 212.6,104.4 215.7,104.4 C216.9,104.4 218.1,104.2 219.4,103.7 C220.7,103.3 221.8,102.7 222.7,102.1 C223.3,101.7 223.9,101.4 224.7,101.4 C225.5,101.4 226.1,101.6 226.5,102 C227.2,102.6 227.6,103.3 227.6,104 C227.6,104.7 227.3,105.3 226.6,105.8 C225.2,106.9 223.5,107.8 221.5,108.4 C219.5,109.1 217.6,109.4 215.7,109.4 C212.4,109.4 209.5,108.7 206.9,107.3 C204.3,105.9 202.2,103.9 200.8,101.3 C199.4,98.8 198.6,95.9 198.6,92.7 C198.6,89.5 199.3,86.6 200.6,84.1 C202,81.5 203.9,79.5 206.4,78.1 C208.9,76.7 211.7,75.9 214.8,75.9 C217.9,75.9 220.6,76.6 222.8,77.9 C225,79.3 226.8,81.2 228,83.6 C229.2,86.4 229.8,89.2 229.8,92.4 L229.8,92.4 Z M214.8,81.4 C211.9,81.4 209.5,82.2 207.6,83.8 C205.8,85.4 204.7,87.6 204.2,90.2 L224.2,90.2 C223.8,87.5 222.8,85.4 221.2,83.8 C219.6,82.2 217.4,81.4 214.8,81.4 Z" id="Shape"></path>
                    <path d="M254,76.1 C256.8,76.1 259.3,76.7 261.5,77.9 C263.7,79.1 265.4,80.9 266.7,83.2 C267.9,85.5 268.6,88.3 268.6,91.5 L268.6,106.3 C268.6,107.2 268.3,107.9 267.7,108.5 C267.1,109.1 266.4,109.3 265.5,109.3 C264.6,109.3 263.9,109 263.3,108.5 C262.7,107.9 262.5,107.2 262.5,106.3 L262.5,91.5 C262.5,88.2 261.6,85.8 259.9,84.2 C258.2,82.5 255.9,81.7 253,81.7 C251.3,81.7 249.8,82 248.4,82.7 C247,83.4 246,84.3 245.1,85.5 C244.3,86.7 244,88 244,89.4 L244,106.4 C244,107.3 243.7,108 243.2,108.6 C242.6,109.2 241.9,109.4 241,109.4 C240.1,109.4 239.4,109.1 238.8,108.6 C238.2,108 238,107.3 238,106.4 L238,79.6 C238,78.7 238.3,77.9 238.8,77.4 C239.4,76.8 240.1,76.6 241,76.6 C241.9,76.6 242.7,76.9 243.2,77.4 C243.8,78 244,78.7 244,79.6 L244,80.3 C245.3,79 246.8,78 248.6,77.4 C250.1,76.5 252,76.1 254,76.1 Z" id="Path"></path>
                    <path d="M293.1,109.6 C289.9,109.6 287.1,108.9 284.6,107.4 C282.1,106 280.1,104 278.6,101.4 C277.2,98.8 276.5,96 276.5,92.9 C276.5,89.7 277.2,86.8 278.5,84.3 C279.9,81.7 281.9,79.7 284.3,78.3 C286.8,76.9 289.6,76.1 292.7,76.1 C297.4,76.1 301.4,77.9 304.5,81.5 C304.9,81.9 305.1,82.5 305.1,83.1 C305.1,84 304.7,84.7 303.8,85.3 C303.4,85.6 302.9,85.7 302.4,85.7 C301.5,85.7 300.7,85.3 300.1,84.6 C299.1,83.5 298,82.7 296.8,82.3 C295.6,81.8 294.3,81.5 292.8,81.5 C289.7,81.5 287.2,82.5 285.3,84.6 C283.4,86.6 282.4,89.4 282.4,92.8 C282.4,95 282.8,96.9 283.7,98.6 C284.6,100.3 285.9,101.6 287.5,102.6 C289.1,103.6 291,104 293.1,104 C295.8,104 298,103.3 299.7,101.9 C300.5,101.3 301.2,101.1 301.9,101.1 C302.5,101.1 303,101.3 303.5,101.6 C304.3,102.2 304.6,103 304.6,103.8 C304.6,104.4 304.4,104.9 303.9,105.4 C301.1,108.3 297.4,109.6 293.1,109.6 L293.1,109.6 Z" id="Path"></path>
                    <path d="M340.9,92.4 C340.9,93.2 340.6,93.8 340.1,94.3 C339.6,94.8 338.9,95 338.1,95 L315.2,95 C315.6,97.8 316.9,100.1 319,101.8 C321.1,103.5 323.7,104.4 326.8,104.4 C328,104.4 329.2,104.2 330.5,103.7 C331.8,103.3 332.9,102.7 333.8,102.1 C334.4,101.7 335,101.4 335.8,101.4 C336.6,101.4 337.2,101.6 337.6,102 C338.3,102.6 338.7,103.3 338.7,104 C338.7,104.7 338.4,105.3 337.7,105.8 C336.3,106.9 334.6,107.8 332.6,108.4 C330.6,109.1 328.7,109.4 326.8,109.4 C323.5,109.4 320.6,108.7 318,107.3 C315.4,105.9 313.3,103.9 311.9,101.3 C310.5,98.8 309.7,95.9 309.7,92.7 C309.7,89.5 310.4,86.6 311.7,84.1 C313.1,81.5 315,79.5 317.5,78.1 C320,76.7 322.8,75.9 325.9,75.9 C329,75.9 331.7,76.6 333.9,77.9 C336.1,79.3 337.9,81.2 339.1,83.6 C340.3,86.4 340.9,89.2 340.9,92.4 L340.9,92.4 Z M326,81.4 C323.1,81.4 320.7,82.2 318.8,83.8 C317,85.4 315.9,87.6 315.4,90.2 L335.4,90.2 C335,87.5 334,85.4 332.4,83.8 C330.8,82.2 328.6,81.4 326,81.4 L326,81.4 Z" id="Shape"></path>
                    <path d="M360.8,109.6 C358.1,109.6 355.5,109.2 353.1,108.3 C350.7,107.4 348.8,106.4 347.4,105 C346.9,104.5 346.6,103.9 346.6,103.1 C346.6,102.1 347,101.4 347.8,100.8 C348.6,100.2 349.3,100 349.9,100 C350.7,100 351.5,100.4 352.2,101.1 C353,101.9 354.1,102.7 355.6,103.3 C357.1,103.9 358.8,104.2 360.5,104.2 C362.8,104.2 364.6,103.8 365.8,103.1 C367.1,102.3 367.7,101.3 367.7,100 C367.7,98.8 367.1,97.7 365.8,96.9 C364.6,96.1 362.4,95.4 359.5,94.8 C351.8,93.3 347.9,90.1 347.9,85.3 C347.9,83.3 348.5,81.7 349.6,80.3 C350.8,78.9 352.3,77.9 354.2,77.2 C356.1,76.5 358.1,76.2 360.2,76.2 C362.8,76.2 365.1,76.6 367.2,77.5 C369.3,78.3 370.9,79.5 372.1,81 C372.6,81.6 372.9,82.3 372.9,82.9 C372.9,83.6 372.6,84.2 371.9,84.8 C371.5,85.1 370.9,85.3 370.2,85.3 C369.2,85.3 368.2,84.9 367.4,84.2 C366.4,83.3 365.3,82.6 364.2,82.3 C363.1,81.9 361.7,81.7 360.1,81.7 C358.3,81.7 356.7,82 355.5,82.7 C354.3,83.3 353.8,84.2 353.8,85.3 C353.8,86.1 354,86.8 354.4,87.3 C354.8,87.8 355.6,88.3 356.7,88.8 C357.8,89.2 359.4,89.7 361.6,90.1 C366,91 369.1,92.2 370.9,93.8 C372.7,95.4 373.7,97.4 373.7,99.9 C373.7,101.7 373.2,103.4 372.2,105 C371.2,106.5 369.7,107.7 367.7,108.6 C365.8,109.2 363.5,109.6 360.8,109.6 L360.8,109.6 Z" id="Path"></path>
                </g>
                <path d="M394.1,0.9 L395.3,0.9 C396.9,0.9 398.1,2.2 398.1,3.7 L398.1,146.5 C398.1,148.1 396.8,149.3 395.3,149.3 L394.1,149.3 C392.5,149.3 391.3,148 391.3,146.5 L391.3,3.7 C391.3,2.1 392.6,0.9 394.1,0.9 Z" id="Path" fill="#FCBA03"></path>
            </g>
        </g>
    </g>
</svg>