<svg xmlns="http://www.w3.org/2000/svg" viewBox="0 0 377.32 83.8"><defs><style>.cls-1{fill:#40465e;}</style></defs><title>logo</title><g id="Layer_2" data-name="Layer 2"><g id="Layer_1-2" data-name="Layer 1"><path class="cls-1" d="M56.93,7.46A37.19,37.19,0,0,0,42.85,4.73,38,38,0,0,0,10.06,23.2,35.59,35.59,0,0,0,5,41.78a35.59,35.59,0,0,0,5.09,18.58A37.81,37.81,0,0,0,23.85,73.91a37.22,37.22,0,0,0,19,5,37.46,37.46,0,0,0,14-2.66,39.2,39.2,0,0,0,12-7.51L72,72.2a42.79,42.79,0,0,1-13.43,8.52,41.93,41.93,0,0,1-15.8,3.08,42.84,42.84,0,0,1-37-20.89A40.33,40.33,0,0,1,0,41.9a40.3,40.3,0,0,1,5.74-21A42.78,42.78,0,0,1,42.73,0,42.49,42.49,0,0,1,58.41,3a43.88,43.88,0,0,1,13.43,8.28l-3,3.79A38.43,38.43,0,0,0,56.93,7.46Z"/><path class="cls-1" d="M316.48.59h60.84V5.44H349.39V83.32h-5V5.44H316.48Z"/><rect class="cls-1" x="176.74" y="78.47" width="49.59" height="4.85"/><rect class="cls-1" x="176.74" y="0.59" width="48.05" height="4.85"/><rect class="cls-1" x="176.74" y="38.59" width="48.05" height="4.85"/><polygon class="cls-1" points="283.58 0.59 278.25 0.59 240.74 83.32 246.18 83.32 256.2 61.16 259.02 54.8 258.96 54.8 280.86 6.27 298.64 45.26 298.64 45.26 298.67 45.33 302.99 54.8 302.99 54.8 308.38 66.63 308.38 66.63 316.01 83.32 321.45 83.32 283.58 0.59"/><path class="cls-1" d="M132.91,54.44q9.94-2.47,15.15-9.29t5.21-17.34q0-13-8.34-20.12T121.2.59H92V5.44h29.36q13,0,20.06,5.8t7,16.69q0,11.13-7,17t-20.06,5.91H92V83.32h5V55.75H121.2a44.17,44.17,0,0,0,7-.48l19.53,28h5.92Z"/></g></g></svg>