<svg xmlns="http://www.w3.org/2000/svg" viewBox="0 0 415.51 90.88"><defs><style>.cls-1{fill:#87cdff}.cls-2{fill:#ffce8f}</style></defs><title>logo</title><g id="Layer_2" data-name="Layer 2"><g id="Layer_1-2" data-name="Layer 1"><path class="cls-1" d="M0,24.58s1.81-1.47,9.73-3.9A40.73,40.73,0,0,1,23,18.41,32.44,32.44,0,0,1,37.68,22a20.64,20.64,0,0,1,6.87,5.82,25.5,25.5,0,0,1,4.09,8.23A33.74,33.74,0,0,1,50,45.6a25.91,25.91,0,0,1-1.68,9.85,27.52,27.52,0,0,1-4.19,7.13,23.45,23.45,0,0,1-9.17,7,27.26,27.26,0,0,1-10.22,2,34.91,34.91,0,0,1-4.14-.21,25.13,25.13,0,0,1-3.15-.57A25.26,25.26,0,0,1,14.83,70l-2.57-1V90.88H0ZM12.26,57.86q3.68,3,11.12,3a13.23,13.23,0,0,0,6-1.31,14.09,14.09,0,0,0,4.46-3.46,15.06,15.06,0,0,0,2.77-4.87,17.2,17.2,0,0,0,1-5.66,23.8,23.8,0,0,0-.69-5.87A13.07,13.07,0,0,0,34.64,35a10.7,10.7,0,0,0-3.93-3.25,13.2,13.2,0,0,0-6-1.21,10.86,10.86,0,0,0-5.14,1.21,13,13,0,0,0-3.93,3.09,14.48,14.48,0,0,0-2.51,4.14,11.69,11.69,0,0,0-.9,4.35Z"/><path class="cls-1" d="M106.18,62.79l-1.73,1.73a20.35,20.35,0,0,1-4.08,3,32,32,0,0,1-6.82,2.83,34.24,34.24,0,0,1-9.9,1.26A27.66,27.66,0,0,1,73,69.6,23.45,23.45,0,0,1,59.49,55.66a30.9,30.9,0,0,1-1.84-10.9,27.26,27.26,0,0,1,1.84-10.12,24.62,24.62,0,0,1,5.13-8.12,24,24,0,0,1,7.86-5.45,25,25,0,0,1,10.12-2A24.12,24.12,0,0,1,94,21.54a21.08,21.08,0,0,1,7.5,6.45,26.41,26.41,0,0,1,4.08,9,42.16,42.16,0,0,1,1.26,10.27v1.79H70.12A10.13,10.13,0,0,0,71.33,54a12.48,12.48,0,0,0,3.15,3.78,14.23,14.23,0,0,0,4.4,2.41,15,15,0,0,0,4.87.84A25.1,25.1,0,0,0,90,60.32a25.63,25.63,0,0,0,4.56-1.57,14.17,14.17,0,0,0,3.09-1.89c.8-.66,1.42-1.2,1.84-1.62ZM94.13,40.15A10.61,10.61,0,0,0,91.25,33a11,11,0,0,0-3.62-2.52,12.14,12.14,0,0,0-5-1,13.83,13.83,0,0,0-5.4,1A12.54,12.54,0,0,0,73.27,33a10.74,10.74,0,0,0-2.41,3.4A9.24,9.24,0,0,0,70,40.15Z"/><path class="cls-1" d="M120.54,30.82h-8.38V20.75h8.38V4.82h12.37V20.75h13.21V30.82H132.91V52.31a12.08,12.08,0,0,0,1.42,6.44A5,5,0,0,0,138.89,61a10.79,10.79,0,0,0,4.66-.84,21.49,21.49,0,0,0,3.3-2l5.24,7.66a25.19,25.19,0,0,1-7.23,4.35,23,23,0,0,1-8,1.31,20,20,0,0,1-7.66-1.31,12.73,12.73,0,0,1-5.08-3.72,14.86,14.86,0,0,1-2.78-5.82,31.31,31.31,0,0,1-.84-7.5Z"/><path class="cls-1" d="M202.62,62.79l-1.73,1.73a20.46,20.46,0,0,1-4.09,3A31.69,31.69,0,0,1,190,70.33a34.31,34.31,0,0,1-9.91,1.26,27.7,27.7,0,0,1-10.69-2,24.23,24.23,0,0,1-8.23-5.5,24,24,0,0,1-5.24-8.44,31.12,31.12,0,0,1-1.83-10.9,27.46,27.46,0,0,1,1.83-10.12,24.64,24.64,0,0,1,5.14-8.12,24,24,0,0,1,7.86-5.45,25,25,0,0,1,10.11-2,24.16,24.16,0,0,1,11.38,2.46A21.13,21.13,0,0,1,197.9,28,26.43,26.43,0,0,1,202,37a42.16,42.16,0,0,1,1.26,10.27v1.79H166.56A10,10,0,0,0,167.77,54a12.59,12.59,0,0,0,3.14,3.78,14.35,14.35,0,0,0,4.4,2.41,15,15,0,0,0,4.88.84A25.11,25.11,0,0,0,191,58.75a14.51,14.51,0,0,0,3.1-1.89q1.2-1,1.83-1.62ZM190.56,40.15a10.36,10.36,0,0,0-.73-3.78,10.59,10.59,0,0,0-2.15-3.4,11,11,0,0,0-3.61-2.52,12.19,12.19,0,0,0-5-1,13.81,13.81,0,0,0-5.39,1A12.47,12.47,0,0,0,169.7,33a10.9,10.9,0,0,0-2.41,3.4,9.23,9.23,0,0,0-.83,3.78Z"/><path class="cls-1" d="M212.78,20.75h11.85l.31,6.19a25.12,25.12,0,0,1,2.15-2.31,16.75,16.75,0,0,1,3.1-2.3,19.32,19.32,0,0,1,4.14-1.79,18.45,18.45,0,0,1,5.39-.73,21.92,21.92,0,0,1,3.2.21,15.22,15.22,0,0,1,2.88.73l-2.51,11.64a11.93,11.93,0,0,0-2.57-.74,21.26,21.26,0,0,0-3.09-.2,13.92,13.92,0,0,0-4.82.83,11.59,11.59,0,0,0-7.66,11.11V69.91H212.78Z"/><path class="cls-2" d="M252.83,0h12.36V24.11A17,17,0,0,1,270,21.28a21.16,21.16,0,0,1,8.59-1.57,21.59,21.59,0,0,1,9.49,2A21.92,21.92,0,0,1,295.17,27a22.82,22.82,0,0,1,4.46,8,31,31,0,0,1,1.52,9.75,28,28,0,0,1-1.94,10.43,24.83,24.83,0,0,1-5.56,8.49,26.87,26.87,0,0,1-8.75,5.76,29.47,29.47,0,0,1-11.53,2.15,61.85,61.85,0,0,1-11.79-1,65.21,65.21,0,0,1-8.75-2.2Zm12.36,59.85a18.34,18.34,0,0,0,3,.79,33.88,33.88,0,0,0,4.93.26,15.58,15.58,0,0,0,6.6-1.31,14.48,14.48,0,0,0,7.81-8.6,17.82,17.82,0,0,0,1-5.92,21.76,21.76,0,0,0-.68-5.45A13.93,13.93,0,0,0,285.74,35,10.69,10.69,0,0,0,282,31.71a11.22,11.22,0,0,0-5.4-1.21q-5.65,0-8.54,2.88a10.68,10.68,0,0,0-2.89,7.92Z"/><path class="cls-2" d="M310.79,20.75h12.37V50.52c0,3.15.85,5.58,2.57,7.29a9,9,0,0,0,6.65,2.57,11.23,11.23,0,0,0,4.72-1,10.86,10.86,0,0,0,3.77-2.78,13.21,13.21,0,0,0,2.47-4.14,14.31,14.31,0,0,0,.89-5.08V20.75H356.6V69.91H344.75l-.31-5.55a23.76,23.76,0,0,1-2.31,2.2A19.87,19.87,0,0,1,339,68.71a18.36,18.36,0,0,1-4.09,1.62,20,20,0,0,1-5.24.63q-9.23,0-14.05-5.5t-4.82-14.83Z"/><path class="cls-2" d="M368.76,0h12.36V38.15l17.72-17.4h14.57L395,38.89l20.55,31H400.73L386.47,47.27l-5.35,5.24v17.4H368.76Z"/></g></g></svg>